# xmcd
#
# Track frame offsets: 
#        150
#        15249
#        34889
#        56048
#        67718
#        92200
#        115702
#        139896
#        158428
#        180945
#        204320
#
# Disc length: 3010 seconds
#
# Revision: 0
# Processed by: cddbd v1.5.1PL2 Copyright (c) Steve Scherf et al.
# Submitted via: ExactAudioCopy v0.95b4
#
DISCID=7f0bc00b
DTITLE=Circle - Indigenous
DYEAR=2000
DGENRE=Blues
TTITLE0=Little Time
TTITLE1=Can't Keep Me From You
TTITLE2=You Left Me This Mornin'
TTITLE3=Evolution Revolution
TTITLE4=You Were The One
TTITLE5=Stay With Me
TTITLE6=Seven Steps Away
TTITLE7=Remember
TTITLE8=Rest Of My Days
TTITLE9=Waiting For You
TTITLE10=The Moon Is Shining
EXTD=
EXTT0=
EXTT1=
EXTT2=
EXTT3=
EXTT4=
EXTT5=
EXTT6=
EXTT7=
EXTT8=
EXTT9=
EXTT10=
PLAYORDER=
